<?xml version="1.0" encoding="UTF-8"?>
<svg xmlns="http://www.w3.org/2000/svg" x="0" y="0" width="69.5" height="71.5">
  <defs>
    <style>
      .reddish
      {
        fill: #d11317;
      }
    </style>
  </defs>
    <path class="reddish" d="M65,35c0-17.58-11.27-30.8-28.64-31.9l.3,16.49c.04.05.07.16.11.87s0,2.32.01,2.69
                    c0,.36-.03,1.21.1,1.44.12.23.73,1.04,2.27,1.06.46,0,1.19-.04,1.64-.2.45-.16,
                    1.01-.3,1.72-1.08.21-.23.59-.67.82-1.58.27-1.05.42-2.07.7-2.55.28-.48.79-.67,1.24
                    -.67.45,0,1.23.22,1.7,1.17.47.95.73,2.1.72,3.59,0,1.35-.33,2.54-.51,3.12-.19.58
                    -.64,1.76-.94,2.48-.3.72-.92,2.08-.91,3.6,0,.24.04,1.3.51,2.52.32.82.99,2.17,1.36,
                    2.89.37.72,1.4,2.86,1.97,4.69.56,1.83.81,2.89.87,5.21.05,2.32-.85,4.67-2.38,6.19z"
                    stroke="white" stroke-width="1px" stroke-linejoin="round" style="filter: drop-shadow(1px 1px 2px rgba(0,0,0,1));"
                    />
</svg>